# xmcd CD database file
#
# Track frame offsets:
#	150
#	25200
#	42425
#
# Disc length: 879 seconds
#
# Revision: 0
# Processed by: cddbd v1.5PL3 Copyright (c) Steve Scherf et al.
# Submitted via: CDex 1.51
#
DISCID=1e036d03
DTITLE=朝日美穂 - momotie
DYEAR=1997
DGENRE=JPop
TTITLE0=momotie
TTITLE1=a little butterfly
TTITLE2=らせんの物語
EXTD=YEAR: 1997
EXTT0=
EXTT1=
EXTT2=
PLAYORDER=
